<?xml version="1.0" encoding="iso-8859-1"?>
<!-- Generator: Adobe Illustrator 17.1.0, SVG Export Plug-In . SVG Version: 6.00 Build 0)  -->
<!DOCTYPE svg PUBLIC "-//W3C//DTD SVG 1.1//EN" "http://www.w3.org/Graphics/SVG/1.1/DTD/svg11.dtd">
<svg xmlns="http://www.w3.org/2000/svg" xmlns:xlink="http://www.w3.org/1999/xlink" version="1.1" id="Capa_1" x="0px" y="0px" viewBox="0 0 233.741 233.741" style="enable-background:new 0 0 233.741 233.741;" xml:space="preserve" width="512px" height="512px">
<path d="M233.486,83.462V54.886c0-10.201-8.299-18.5-18.5-18.5h-85.322c-3.63,0-9.295-2.876-11.437-5.806  l-6.386-8.736C106.859,15.03,96.736,9.892,88.296,9.892H58.731c-9.295,0-18.64,6.608-21.738,15.371l-2.034,5.753  c-0.958,2.711-4.72,5.37-7.595,5.37H18.5c-10.201,0-18.5,8.299-18.5,18.5v41.456c0,0.661,0.095,1.299,0.255,1.91V201.35  c0,12.407,10.094,22.5,22.5,22.5h188.486c12.406,0,22.5-10.093,22.5-22.5V86.847C233.741,85.696,233.653,84.566,233.486,83.462z   M18.5,51.386h8.864c9.296,0,18.641-6.608,21.737-15.371l2.034-5.752c0.958-2.711,4.721-5.371,7.596-5.371h29.564  c3.63,0,9.295,2.877,11.438,5.806l6.385,8.735c4.982,6.815,15.104,11.954,23.546,11.954h85.322c1.898,0,3.5,1.604,3.5,3.5V65.55  c-2.275-0.776-4.71-1.204-7.245-1.204H22.755c-2.725,0-5.336,0.487-7.755,1.378V54.886C15,52.989,16.603,51.386,18.5,51.386z   M211.241,208.85H22.755c-4.136,0-7.5-3.365-7.5-7.5V86.847c0-4.135,3.364-7.5,7.5-7.5h188.486c3.477,0,6.398,2.38,7.245,5.594  v3.915c0,0.661,0.095,1.3,0.255,1.91V201.35C218.741,205.485,215.377,208.85,211.241,208.85z" fill="#ccc"/>
</svg>
