<?xml version="1.0" encoding="iso-8859-1"?>
<!-- Generator: Adobe Illustrator 16.0.0, SVG Export Plug-In . SVG Version: 6.00 Build 0)  -->
<!DOCTYPE svg PUBLIC "-//W3C//DTD SVG 1.1//EN" "http://www.w3.org/Graphics/SVG/1.1/DTD/svg11.dtd">
<svg xmlns="http://www.w3.org/2000/svg" xmlns:xlink="http://www.w3.org/1999/xlink" version="1.1" id="Capa_1" x="0px" y="0px" width="512px" height="512px" viewBox="0 0 550.801 550.801" style="enable-background:#" xml:space="preserve">
	<g>
		<rect x="50" width="412" height="512" style="fill:white;" opacity="0.7" />
	</g>
	<g>
		<path d="M475.084,131.997c-0.021-2.531-0.833-5.021-2.567-6.992L366.325,3.694c-0.032-0.034-0.063-0.045-0.085-0.076   c-0.633-0.707-1.371-1.295-2.151-1.804c-0.231-0.155-0.464-0.285-0.706-0.422c-0.676-0.366-1.393-0.675-2.131-0.896   c-0.2-0.053-0.38-0.135-0.58-0.188C359.87,0.119,359.037,0,358.193,0H97.2c-11.918,0-21.6,9.693-21.6,21.601v507.6   c0,11.907,9.682,21.601,21.6,21.601h356.4c11.907,0,21.6-9.693,21.6-21.601V133.202C475.2,132.796,475.137,132.398,475.084,131.997   z M204.051,521.143c-6.94,0-16.055-1.182-21.998-3.164l3.375-24.374c4.158,1.393,9.503,2.384,15.448,2.384   c12.68,0,20.596-5.759,20.596-26.557v-83.996h30.122v84.396h0.005C251.599,507.875,233.374,521.143,204.051,521.143z    M309.445,520.942c-15.25,0-30.29-3.966-37.823-8.121l6.138-24.965c8.124,4.166,20.606,8.321,33.489,8.321   c13.864,0,21.188-5.731,21.188-14.459c0-8.322-6.338-13.078-22.386-18.816c-22.185-7.73-36.647-20.007-36.647-39.424   c0-22.781,19.014-40.215,50.512-40.215c15.051,0,26.156,3.164,34.077,6.739l-6.719,24.363c-5.357-2.573-14.86-6.339-27.949-6.339   c-13.067,0-19.417,5.959-19.417,12.878c0,8.511,7.541,12.287,24.775,18.815c23.562,8.723,34.667,20.999,34.667,39.814   C363.34,501.926,346.096,520.942,309.445,520.942z M453.601,366.747H97.2V21.601h250.193v110.51c0,5.967,4.841,10.8,10.8,10.8   h95.407V366.747z M357.592,230.798c2.489,5.16,3.597,10.383,3.597,17.062c0,10.465-3.296,18.808-9.987,25.262   c-6.281,6.097-14.392,9.683-25.202,11.201c-4.303,0.591-12.725,0.622-17.218,0c-17.181-2.3-29.893-10.32-38.024-24.021   c-1.041-1.706-1.252-2.268-0.988-2.511c0.427-0.4,20.788-12.145,21.03-12.145c0.11,0,0.886,1.013,1.74,2.247   c6.26,9.255,14.049,13.537,24.474,13.537c6.187,0,11.153-1.685,14.308-4.872c0.943-0.934,1.982-2.326,2.383-3.154   c2.057-4.282,1.15-9.869-2.114-13.374c-2.647-2.837-6.798-5.115-17.951-9.898c-8.189-3.533-12.925-5.806-16.4-7.894   c-13.663-8.269-19.802-18.702-19.802-33.634c0-9.977,3.106-17.84,9.604-24.286c6.322-6.26,14.803-9.898,24.906-10.697   c3.828-0.298,4.366-0.298,8.433,0.026c8.295,0.614,14.581,2.618,20.466,6.528c3.186,2.117,7.815,6.927,10.378,10.779   c1.213,1.819,2.199,3.37,2.199,3.48c0,0.185-19.454,12.762-20.14,13.06c-0.221,0.073-0.833-0.644-1.666-1.957   c-0.723-1.149-2.272-3.045-3.48-4.221c-3.396-3.43-6.739-4.764-11.907-4.764c-4.546-0.032-7.488,1.118-10.025,3.878   c-1.767,1.901-2.567,3.85-2.758,6.74c-0.211,3.639,0.78,6.555,3.101,9.044c2.437,2.592,6.134,4.627,17.149,9.358   c14.576,6.265,21.885,10.597,27.527,16.318C354.175,224.889,355.884,227.259,357.592,230.798z M241.861,154.958h13.112v47.429   c0,31.462-0.108,48.179-0.271,49.673c-1.846,14.792-8.822,24.743-20.73,29.563c-9.924,3.986-23.461,4.313-34.003,0.802   c-9.975-3.322-18.27-10.539-23.058-20.092l-0.804-1.604l10.568-6.423c5.804-3.499,10.647-6.413,10.75-6.468   c0.087-0.032,0.783,1.015,1.556,2.302c4.786,8.189,8.904,11.101,15.783,11.074c4.817-0.026,7.702-0.968,9.954-3.214   c1.603-1.604,2.516-3.341,3.288-6.257l0.588-2.22l0.082-47.297l0.108-47.268H241.861z" fill="#ff18a6"/>
	</g>
</svg>

