<?xml version="1.0" encoding="iso-8859-1"?>
<svg xmlns="http://www.w3.org/2000/svg" xmlns:xlink="http://www.w3.org/1999/xlink" version="1.1" id="Capa_1" x="0px" y="0px" viewBox="0 0 525.153 525.153" style="enable-background:new 0 0 525.153 525.153;" xml:space="preserve" width="512px" height="512px">
<g>
	<rect x="50" y="190" width="100" height="150" style="fill:#fff" />
	<path d="M381.917,119.341c-79.014,0-143.213,64.222-143.213,143.235s64.2,143.235,143.213,143.235   c79.035,0,143.235-64.222,143.235-143.235S460.953,119.341,381.917,119.341z M95.468,167.108C42.734,167.108,0,209.82,0,262.576   s42.734,95.468,95.468,95.468c52.756,0,95.49-42.712,95.49-95.468S148.224,167.108,95.468,167.108z M95.468,310.321   c-26.258,0-47.745-21.487-47.745-47.745s21.487-47.745,47.745-47.745c26.28,0,47.767,21.488,47.767,47.745   C143.235,288.812,121.748,310.321,95.468,310.321z" fill="#754BC3"/>
</g>
</svg>
